<svg xmlns="http://www.w3.org/2000/svg" version="1.1" xmlns:xlink="http://www.w3.org/1999/xlink" xmlns:svgjs="http://svgjs.com/svgjs" width="1896" height="1080" preserveAspectRatio="none" viewBox="0 0 1896 1080"><g mask="url(&quot;#SvgjsMask1046&quot;)" fill="none"><rect width="1896" height="1080" x="0" y="0" fill="rgba(85, 234, 224, 1)"></rect><path d="M1622 841L2128 840" stroke-width="6" stroke="url(#SvgjsLinearGradient1047)" stroke-linecap="round" class="Left"></path><path d="M1092 487L75 486" stroke-width="10" stroke="url(#SvgjsLinearGradient1048)" stroke-linecap="round" class="Right"></path><path d="M124 956L631 955" stroke-width="6" stroke="url(#SvgjsLinearGradient1048)" stroke-linecap="round" class="Right"></path><path d="M1273 216L698 215" stroke-width="6" stroke="url(#SvgjsLinearGradient1047)" stroke-linecap="round" class="Left"></path><path d="M1639 81L2734 80" stroke-width="8" stroke="url(#SvgjsLinearGradient1047)" stroke-linecap="round" class="Left"></path><path d="M882 817L1498 816" stroke-width="6" stroke="url(#SvgjsLinearGradient1048)" stroke-linecap="round" class="Right"></path><path d="M1332 934L480 933" stroke-width="6" stroke="url(#SvgjsLinearGradient1048)" stroke-linecap="round" class="Right"></path><path d="M407 1006L977 1005" stroke-width="6" stroke="url(#SvgjsLinearGradient1048)" stroke-linecap="round" class="Right"></path><path d="M833 362L112 361" stroke-width="10" stroke="url(#SvgjsLinearGradient1047)" stroke-linecap="round" class="Left"></path><path d="M1576 450L2833 449" stroke-width="10" stroke="url(#SvgjsLinearGradient1047)" stroke-linecap="round" class="Left"></path><path d="M1565 421L918 420" stroke-width="10" stroke="url(#SvgjsLinearGradient1047)" stroke-linecap="round" class="Left"></path><path d="M783 557L-73 556" stroke-width="6" stroke="url(#SvgjsLinearGradient1048)" stroke-linecap="round" class="Right"></path><path d="M1105 887L1765 886" stroke-width="10" stroke="url(#SvgjsLinearGradient1047)" stroke-linecap="round" class="Left"></path><path d="M802 433L-589 432" stroke-width="10" stroke="url(#SvgjsLinearGradient1048)" stroke-linecap="round" class="Right"></path><path d="M795 714L-432 713" stroke-width="10" stroke="url(#SvgjsLinearGradient1048)" stroke-linecap="round" class="Right"></path><path d="M1747 388L3030 387" stroke-width="8" stroke="url(#SvgjsLinearGradient1048)" stroke-linecap="round" class="Right"></path><path d="M1620 311L600 310" stroke-width="10" stroke="url(#SvgjsLinearGradient1048)" stroke-linecap="round" class="Right"></path><path d="M854 1026L-178 1025" stroke-width="8" stroke="url(#SvgjsLinearGradient1047)" stroke-linecap="round" class="Left"></path><path d="M687 1041L1786 1040" stroke-width="8" stroke="url(#SvgjsLinearGradient1048)" stroke-linecap="round" class="Right"></path><path d="M1305 713L440 712" stroke-width="6" stroke="url(#SvgjsLinearGradient1048)" stroke-linecap="round" class="Right"></path><path d="M1154 278L1725 277" stroke-width="6" stroke="url(#SvgjsLinearGradient1048)" stroke-linecap="round" class="Right"></path><path d="M1574 618L2718 617" stroke-width="6" stroke="url(#SvgjsLinearGradient1047)" stroke-linecap="round" class="Left"></path><path d="M92 908L-1210 907" stroke-width="6" stroke="url(#SvgjsLinearGradient1048)" stroke-linecap="round" class="Right"></path><path d="M906 538L-252 537" stroke-width="8" stroke="url(#SvgjsLinearGradient1048)" stroke-linecap="round" class="Right"></path><path d="M537 741L-637 740" stroke-width="8" stroke="url(#SvgjsLinearGradient1048)" stroke-linecap="round" class="Right"></path><path d="M1510 790L2365 789" stroke-width="10" stroke="url(#SvgjsLinearGradient1047)" stroke-linecap="round" class="Left"></path><path d="M1530 37L448 36" stroke-width="6" stroke="url(#SvgjsLinearGradient1047)" stroke-linecap="round" class="Left"></path></g><defs><mask id="SvgjsMask1046"><rect width="1896" height="1080" fill="#ffffff"></rect></mask><linearGradient x1="100%" y1="0%" x2="0%" y2="0%" id="SvgjsLinearGradient1047"><stop stop-color="rgba(136, 135, 133, 0)" offset="0"></stop><stop stop-color="rgba(136, 135, 133, 1)" offset="1"></stop></linearGradient><linearGradient x1="0%" y1="0%" x2="100%" y2="0%" id="SvgjsLinearGradient1048"><stop stop-color="rgba(136, 135, 133, 0)" offset="0"></stop><stop stop-color="rgba(136, 135, 133, 1)" offset="1"></stop></linearGradient></defs></svg>