<svg xmlns="http://www.w3.org/2000/svg" version="1.1" xmlns:xlink="http://www.w3.org/1999/xlink" xmlns:svgjs="http://svgjs.com/svgjs" width="1280" height="1024" preserveAspectRatio="none" viewBox="0 0 1280 1024"><g mask="url(&quot;#SvgjsMask1030&quot;)" fill="none"><rect width="1280" height="1024" x="0" y="0" fill="url(#SvgjsLinearGradient1031)"></rect><path d="M-80.02 691.85L-80.02 691.85" stroke="#132e65" stroke-width="1.5"></path><path d="M-80.02 691.85L-103.19 832.97" stroke="#132e65" stroke-width="1.5"></path><path d="M-80.02 691.85L99.02 665.05" stroke="#132e65" stroke-width="1.5"></path><path d="M-80.02 691.85L78.74 805.5" stroke="#132e65" stroke-width="1.5"></path><path d="M-103.19 832.97L-103.19 832.97" stroke="#132e65" stroke-width="1.5"></path><path d="M-103.19 832.97L-107.56 952.18" stroke="#132e65" stroke-width="1.5"></path><path d="M-103.19 832.97L78.74 805.5" stroke="#132e65" stroke-width="1.5"></path><path d="M-103.19 832.97L77.53 946.28" stroke="#132e65" stroke-width="1.5"></path><path d="M-103.19 832.97L99.02 665.05" stroke="#132e65" stroke-width="1.5"></path><path d="M-107.56 952.18L-107.56 952.18" stroke="#132e65" stroke-width="1.5"></path><path d="M-107.56 952.18L-106.26 1099.32" stroke="#132e65" stroke-width="1.5"></path><path d="M-107.56 952.18L77.53 946.28" stroke="#132e65" stroke-width="1.5"></path><path d="M-107.56 952.18L78.74 805.5" stroke="#132e65" stroke-width="1.5"></path><path d="M-107.56 952.18L39.94 1145.91" stroke="#132e65" stroke-width="1.5"></path><path d="M-107.56 952.18L-80.02 691.85" stroke="#132e65" stroke-width="1.5"></path><path d="M-106.26 1099.32L-106.26 1099.32" stroke="#132e65" stroke-width="1.5"></path><path d="M-106.26 1099.32L39.94 1145.91" stroke="#132e65" stroke-width="1.5"></path><path d="M-106.26 1099.32L77.53 946.28" stroke="#132e65" stroke-width="1.5"></path><path d="M-106.26 1099.32L-103.19 832.97" stroke="#132e65" stroke-width="1.5"></path><path d="M-106.26 1099.32L223.34 1162.01" stroke="#132e65" stroke-width="1.5"></path><path d="M99.02 665.05L99.02 665.05" stroke="#132e65" stroke-width="1.5"></path><path d="M99.02 665.05L210.8 698.11" stroke="#132e65" stroke-width="1.5"></path><path d="M99.02 665.05L78.74 805.5" stroke="#132e65" stroke-width="1.5"></path><path d="M99.02 665.05L258.37 809.95" stroke="#132e65" stroke-width="1.5"></path><path d="M78.74 805.5L78.74 805.5" stroke="#132e65" stroke-width="1.5"></path><path d="M78.74 805.5L77.53 946.28" stroke="#132e65" stroke-width="1.5"></path><path d="M78.74 805.5L210.8 698.11" stroke="#132e65" stroke-width="1.5"></path><path d="M78.74 805.5L258.37 809.95" stroke="#132e65" stroke-width="1.5"></path><path d="M77.53 946.28L77.53 946.28" stroke="#132e65" stroke-width="1.5"></path><path d="M77.53 946.28L241.6 986.31" stroke="#132e65" stroke-width="1.5"></path><path d="M39.94 1145.91L39.94 1145.91" stroke="#132e65" stroke-width="1.5"></path><path d="M39.94 1145.91L223.34 1162.01" stroke="#132e65" stroke-width="1.5"></path><path d="M39.94 1145.91L77.53 946.28" stroke="#132e65" stroke-width="1.5"></path><path d="M210.8 698.11L210.8 698.11" stroke="#132e65" stroke-width="1.5"></path><path d="M210.8 698.11L258.37 809.95" stroke="#132e65" stroke-width="1.5"></path><path d="M210.8 698.11L382.56 803.74" stroke="#132e65" stroke-width="1.5"></path><path d="M258.37 809.95L258.37 809.95" stroke="#132e65" stroke-width="1.5"></path><path d="M258.37 809.95L382.56 803.74" stroke="#132e65" stroke-width="1.5"></path><path d="M258.37 809.95L357.07 951.8" stroke="#132e65" stroke-width="1.5"></path><path d="M258.37 809.95L241.6 986.31" stroke="#132e65" stroke-width="1.5"></path><path d="M241.6 986.31L241.6 986.31" stroke="#132e65" stroke-width="1.5"></path><path d="M241.6 986.31L357.07 951.8" stroke="#132e65" stroke-width="1.5"></path><path d="M223.34 1162.01L223.34 1162.01" stroke="#132e65" stroke-width="1.5"></path><path d="M223.34 1162.01L241.6 986.31" stroke="#132e65" stroke-width="1.5"></path><path d="M223.34 1162.01L395.71 1110.51" stroke="#132e65" stroke-width="1.5"></path><path d="M223.34 1162.01L357.07 951.8" stroke="#132e65" stroke-width="1.5"></path><path d="M223.34 1162.01L77.53 946.28" stroke="#132e65" stroke-width="1.5"></path><path d="M396.94 559.45L396.94 559.45" stroke="#132e65" stroke-width="1.5"></path><path d="M396.94 559.45L530.59 544.89" stroke="#132e65" stroke-width="1.5"></path><path d="M396.94 559.45L492.67 699.37" stroke="#132e65" stroke-width="1.5"></path><path d="M396.94 559.45L210.8 698.11" stroke="#132e65" stroke-width="1.5"></path><path d="M382.56 803.74L382.56 803.74" stroke="#132e65" stroke-width="1.5"></path><path d="M382.56 803.74L357.07 951.8" stroke="#132e65" stroke-width="1.5"></path><path d="M357.07 951.8L357.07 951.8" stroke="#132e65" stroke-width="1.5"></path><path d="M357.07 951.8L395.71 1110.51" stroke="#132e65" stroke-width="1.5"></path><path d="M357.07 951.8L559.84 1002.72" stroke="#132e65" stroke-width="1.5"></path><path d="M357.07 951.8L527.4 1111.67" stroke="#132e65" stroke-width="1.5"></path><path d="M395.71 1110.51L395.71 1110.51" stroke="#132e65" stroke-width="1.5"></path><path d="M395.71 1110.51L527.4 1111.67" stroke="#132e65" stroke-width="1.5"></path><path d="M530.59 544.89L530.59 544.89" stroke="#132e65" stroke-width="1.5"></path><path d="M530.59 544.89L666.02 506.84" stroke="#132e65" stroke-width="1.5"></path><path d="M492.67 699.37L492.67 699.37" stroke="#132e65" stroke-width="1.5"></path><path d="M492.67 699.37L561.92 790.27" stroke="#132e65" stroke-width="1.5"></path><path d="M492.67 699.37L382.56 803.74" stroke="#132e65" stroke-width="1.5"></path><path d="M492.67 699.37L530.59 544.89" stroke="#132e65" stroke-width="1.5"></path><path d="M492.67 699.37L695.91 681.53" stroke="#132e65" stroke-width="1.5"></path><path d="M492.67 699.37L657.72 848.76" stroke="#132e65" stroke-width="1.5"></path><path d="M561.92 790.27L561.92 790.27" stroke="#132e65" stroke-width="1.5"></path><path d="M561.92 790.27L657.72 848.76" stroke="#132e65" stroke-width="1.5"></path><path d="M561.92 790.27L695.91 681.53" stroke="#132e65" stroke-width="1.5"></path><path d="M561.92 790.27L382.56 803.74" stroke="#132e65" stroke-width="1.5"></path><path d="M559.84 1002.72L559.84 1002.72" stroke="#132e65" stroke-width="1.5"></path><path d="M559.84 1002.72L527.4 1111.67" stroke="#132e65" stroke-width="1.5"></path><path d="M559.84 1002.72L679.56 1004.2" stroke="#132e65" stroke-width="1.5"></path><path d="M559.84 1002.72L657.72 848.76" stroke="#132e65" stroke-width="1.5"></path><path d="M559.84 1002.72L710.86 1112.07" stroke="#132e65" stroke-width="1.5"></path><path d="M527.4 1111.67L527.4 1111.67" stroke="#132e65" stroke-width="1.5"></path><path d="M527.4 1111.67L710.86 1112.07" stroke="#132e65" stroke-width="1.5"></path><path d="M699.12 401.41L699.12 401.41" stroke="#132e65" stroke-width="1.5"></path><path d="M699.12 401.41L666.02 506.84" stroke="#132e65" stroke-width="1.5"></path><path d="M699.12 401.41L830.03 344.57" stroke="#132e65" stroke-width="1.5"></path><path d="M699.12 401.41L824.75 255.86" stroke="#132e65" stroke-width="1.5"></path><path d="M699.12 401.41L835.44 550.12" stroke="#132e65" stroke-width="1.5"></path><path d="M699.12 401.41L530.59 544.89" stroke="#132e65" stroke-width="1.5"></path><path d="M699.12 401.41L946.4 387.13" stroke="#132e65" stroke-width="1.5"></path><path d="M666.02 506.84L666.02 506.84" stroke="#132e65" stroke-width="1.5"></path><path d="M666.02 506.84L835.44 550.12" stroke="#132e65" stroke-width="1.5"></path><path d="M666.02 506.84L695.91 681.53" stroke="#132e65" stroke-width="1.5"></path><path d="M666.02 506.84L830.03 344.57" stroke="#132e65" stroke-width="1.5"></path><path d="M666.02 506.84L844.79 683.33" stroke="#132e65" stroke-width="1.5"></path><path d="M695.91 681.53L695.91 681.53" stroke="#132e65" stroke-width="1.5"></path><path d="M695.91 681.53L844.79 683.33" stroke="#132e65" stroke-width="1.5"></path><path d="M695.91 681.53L657.72 848.76" stroke="#132e65" stroke-width="1.5"></path><path d="M657.72 848.76L657.72 848.76" stroke="#132e65" stroke-width="1.5"></path><path d="M657.72 848.76L798.27 825.67" stroke="#132e65" stroke-width="1.5"></path><path d="M657.72 848.76L679.56 1004.2" stroke="#132e65" stroke-width="1.5"></path><path d="M679.56 1004.2L679.56 1004.2" stroke="#132e65" stroke-width="1.5"></path><path d="M679.56 1004.2L710.86 1112.07" stroke="#132e65" stroke-width="1.5"></path><path d="M710.86 1112.07L710.86 1112.07" stroke="#132e65" stroke-width="1.5"></path><path d="M710.86 1112.07L787.61 1138.26" stroke="#132e65" stroke-width="1.5"></path><path d="M710.86 1112.07L845.72 979.3" stroke="#132e65" stroke-width="1.5"></path><path d="M847.77 -54.06L847.77 -54.06" stroke="#132e65" stroke-width="1.5"></path><path d="M847.77 -54.06L797.14 45.09" stroke="#132e65" stroke-width="1.5"></path><path d="M847.77 -54.06L1005.58 -51.14" stroke="#132e65" stroke-width="1.5"></path><path d="M847.77 -54.06L956.46 75.46" stroke="#132e65" stroke-width="1.5"></path><path d="M847.77 -54.06L1126.34 -98.27" stroke="#132e65" stroke-width="1.5"></path><path d="M797.14 45.09L797.14 45.09" stroke="#132e65" stroke-width="1.5"></path><path d="M797.14 45.09L956.46 75.46" stroke="#132e65" stroke-width="1.5"></path><path d="M797.14 45.09L824.75 255.86" stroke="#132e65" stroke-width="1.5"></path><path d="M797.14 45.09L1005.58 -51.14" stroke="#132e65" stroke-width="1.5"></path><path d="M824.75 255.86L824.75 255.86" stroke="#132e65" stroke-width="1.5"></path><path d="M824.75 255.86L830.03 344.57" stroke="#132e65" stroke-width="1.5"></path><path d="M824.75 255.86L972.57 262" stroke="#132e65" stroke-width="1.5"></path><path d="M824.75 255.86L946.4 387.13" stroke="#132e65" stroke-width="1.5"></path><path d="M830.03 344.57L830.03 344.57" stroke="#132e65" stroke-width="1.5"></path><path d="M830.03 344.57L946.4 387.13" stroke="#132e65" stroke-width="1.5"></path><path d="M830.03 344.57L972.57 262" stroke="#132e65" stroke-width="1.5"></path><path d="M835.44 550.12L835.44 550.12" stroke="#132e65" stroke-width="1.5"></path><path d="M835.44 550.12L844.79 683.33" stroke="#132e65" stroke-width="1.5"></path><path d="M835.44 550.12L972.48 638.7" stroke="#132e65" stroke-width="1.5"></path><path d="M844.79 683.33L844.79 683.33" stroke="#132e65" stroke-width="1.5"></path><path d="M844.79 683.33L972.48 638.7" stroke="#132e65" stroke-width="1.5"></path><path d="M844.79 683.33L798.27 825.67" stroke="#132e65" stroke-width="1.5"></path><path d="M798.27 825.67L798.27 825.67" stroke="#132e65" stroke-width="1.5"></path><path d="M845.72 979.3L845.72 979.3" stroke="#132e65" stroke-width="1.5"></path><path d="M845.72 979.3L953.74 998.48" stroke="#132e65" stroke-width="1.5"></path><path d="M845.72 979.3L798.27 825.67" stroke="#132e65" stroke-width="1.5"></path><path d="M787.61 1138.26L787.61 1138.26" stroke="#132e65" stroke-width="1.5"></path><path d="M787.61 1138.26L942.99 1131.59" stroke="#132e65" stroke-width="1.5"></path><path d="M787.61 1138.26L845.72 979.3" stroke="#132e65" stroke-width="1.5"></path><path d="M787.61 1138.26L679.56 1004.2" stroke="#132e65" stroke-width="1.5"></path><path d="M787.61 1138.26L953.74 998.48" stroke="#132e65" stroke-width="1.5"></path><path d="M1005.58 -51.14L1005.58 -51.14" stroke="#132e65" stroke-width="1.5"></path><path d="M1005.58 -51.14L1126.34 -98.27" stroke="#132e65" stroke-width="1.5"></path><path d="M1005.58 -51.14L956.46 75.46" stroke="#132e65" stroke-width="1.5"></path><path d="M956.46 75.46L956.46 75.46" stroke="#132e65" stroke-width="1.5"></path><path d="M956.46 75.46L1133.89 90.62" stroke="#132e65" stroke-width="1.5"></path><path d="M956.46 75.46L972.57 262" stroke="#132e65" stroke-width="1.5"></path><path d="M956.46 75.46L824.75 255.86" stroke="#132e65" stroke-width="1.5"></path><path d="M972.57 262L972.57 262" stroke="#132e65" stroke-width="1.5"></path><path d="M972.57 262L946.4 387.13" stroke="#132e65" stroke-width="1.5"></path><path d="M946.4 387.13L946.4 387.13" stroke="#132e65" stroke-width="1.5"></path><path d="M946.4 387.13L1002.06 548.86" stroke="#132e65" stroke-width="1.5"></path><path d="M946.4 387.13L835.44 550.12" stroke="#132e65" stroke-width="1.5"></path><path d="M1002.06 548.86L1002.06 548.86" stroke="#132e65" stroke-width="1.5"></path><path d="M1002.06 548.86L972.48 638.7" stroke="#132e65" stroke-width="1.5"></path><path d="M1002.06 548.86L1141.59 499.09" stroke="#132e65" stroke-width="1.5"></path><path d="M1002.06 548.86L1123.01 639.54" stroke="#132e65" stroke-width="1.5"></path><path d="M972.48 638.7L972.48 638.7" stroke="#132e65" stroke-width="1.5"></path><path d="M972.48 638.7L1123.01 639.54" stroke="#132e65" stroke-width="1.5"></path><path d="M984.9 800.65L984.9 800.65" stroke="#132e65" stroke-width="1.5"></path><path d="M984.9 800.65L972.48 638.7" stroke="#132e65" stroke-width="1.5"></path><path d="M984.9 800.65L844.79 683.33" stroke="#132e65" stroke-width="1.5"></path><path d="M953.74 998.48L953.74 998.48" stroke="#132e65" stroke-width="1.5"></path><path d="M953.74 998.48L942.99 1131.59" stroke="#132e65" stroke-width="1.5"></path><path d="M953.74 998.48L1130.7 955.35" stroke="#132e65" stroke-width="1.5"></path><path d="M953.74 998.48L984.9 800.65" stroke="#132e65" stroke-width="1.5"></path><path d="M953.74 998.48L1101.09 1138.06" stroke="#132e65" stroke-width="1.5"></path><path d="M942.99 1131.59L942.99 1131.59" stroke="#132e65" stroke-width="1.5"></path><path d="M942.99 1131.59L1101.09 1138.06" stroke="#132e65" stroke-width="1.5"></path><path d="M942.99 1131.59L845.72 979.3" stroke="#132e65" stroke-width="1.5"></path><path d="M942.99 1131.59L710.86 1112.07" stroke="#132e65" stroke-width="1.5"></path><path d="M1126.34 -98.27L1126.34 -98.27" stroke="#132e65" stroke-width="1.5"></path><path d="M1126.34 -98.27L1308.71 -85.83" stroke="#132e65" stroke-width="1.5"></path><path d="M1126.34 -98.27L1247.53 43.18" stroke="#132e65" stroke-width="1.5"></path><path d="M1126.34 -98.27L1133.89 90.62" stroke="#132e65" stroke-width="1.5"></path><path d="M1126.34 -98.27L956.46 75.46" stroke="#132e65" stroke-width="1.5"></path><path d="M1133.89 90.62L1133.89 90.62" stroke="#132e65" stroke-width="1.5"></path><path d="M1133.89 90.62L1247.53 43.18" stroke="#132e65" stroke-width="1.5"></path><path d="M1133.89 90.62L1132.06 223.18" stroke="#132e65" stroke-width="1.5"></path><path d="M1132.06 223.18L1132.06 223.18" stroke="#132e65" stroke-width="1.5"></path><path d="M1132.06 223.18L972.57 262" stroke="#132e65" stroke-width="1.5"></path><path d="M1132.06 223.18L1159.52 388.39" stroke="#132e65" stroke-width="1.5"></path><path d="M1132.06 223.18L1310.39 227.52" stroke="#132e65" stroke-width="1.5"></path><path d="M1132.06 223.18L1247.53 43.18" stroke="#132e65" stroke-width="1.5"></path><path d="M1132.06 223.18L956.46 75.46" stroke="#132e65" stroke-width="1.5"></path><path d="M1159.52 388.39L1159.52 388.39" stroke="#132e65" stroke-width="1.5"></path><path d="M1159.52 388.39L1141.59 499.09" stroke="#132e65" stroke-width="1.5"></path><path d="M1159.52 388.39L1311.07 389.43" stroke="#132e65" stroke-width="1.5"></path><path d="M1159.52 388.39L1280.88 510.27" stroke="#132e65" stroke-width="1.5"></path><path d="M1141.59 499.09L1141.59 499.09" stroke="#132e65" stroke-width="1.5"></path><path d="M1141.59 499.09L1280.88 510.27" stroke="#132e65" stroke-width="1.5"></path><path d="M1123.01 639.54L1123.01 639.54" stroke="#132e65" stroke-width="1.5"></path><path d="M1123.01 639.54L1141.59 499.09" stroke="#132e65" stroke-width="1.5"></path><path d="M1130.7 955.35L1130.7 955.35" stroke="#132e65" stroke-width="1.5"></path><path d="M1130.7 955.35L1286.95 984.31" stroke="#132e65" stroke-width="1.5"></path><path d="M1130.7 955.35L1251 840.86" stroke="#132e65" stroke-width="1.5"></path><path d="M1130.7 955.35L1101.09 1138.06" stroke="#132e65" stroke-width="1.5"></path><path d="M1101.09 1138.06L1101.09 1138.06" stroke="#132e65" stroke-width="1.5"></path><path d="M1101.09 1138.06L1295.48 1134.9" stroke="#132e65" stroke-width="1.5"></path><path d="M1308.71 -85.83L1308.71 -85.83" stroke="#132e65" stroke-width="1.5"></path><path d="M1308.71 -85.83L1247.53 43.18" stroke="#132e65" stroke-width="1.5"></path><path d="M1308.71 -85.83L1449.81 -111.31" stroke="#132e65" stroke-width="1.5"></path><path d="M1308.71 -85.83L1389.96 82.36" stroke="#132e65" stroke-width="1.5"></path><path d="M1308.71 -85.83L1133.89 90.62" stroke="#132e65" stroke-width="1.5"></path><path d="M1247.53 43.18L1247.53 43.18" stroke="#132e65" stroke-width="1.5"></path><path d="M1247.53 43.18L1389.96 82.36" stroke="#132e65" stroke-width="1.5"></path><path d="M1310.39 227.52L1310.39 227.52" stroke="#132e65" stroke-width="1.5"></path><path d="M1310.39 227.52L1399.54 216.32" stroke="#132e65" stroke-width="1.5"></path><path d="M1310.39 227.52L1311.07 389.43" stroke="#132e65" stroke-width="1.5"></path><path d="M1310.39 227.52L1389.96 82.36" stroke="#132e65" stroke-width="1.5"></path><path d="M1310.39 227.52L1247.53 43.18" stroke="#132e65" stroke-width="1.5"></path><path d="M1310.39 227.52L1428.5 397.94" stroke="#132e65" stroke-width="1.5"></path><path d="M1311.07 389.43L1311.07 389.43" stroke="#132e65" stroke-width="1.5"></path><path d="M1311.07 389.43L1428.5 397.94" stroke="#132e65" stroke-width="1.5"></path><path d="M1311.07 389.43L1280.88 510.27" stroke="#132e65" stroke-width="1.5"></path><path d="M1280.88 510.27L1280.88 510.27" stroke="#132e65" stroke-width="1.5"></path><path d="M1280.88 510.27L1438.41 560.5" stroke="#132e65" stroke-width="1.5"></path><path d="M1251 840.86L1251 840.86" stroke="#132e65" stroke-width="1.5"></path><path d="M1251 840.86L1286.95 984.31" stroke="#132e65" stroke-width="1.5"></path><path d="M1251 840.86L1414.58 803.4" stroke="#132e65" stroke-width="1.5"></path><path d="M1251 840.86L1455.89 947.16" stroke="#132e65" stroke-width="1.5"></path><path d="M1251 840.86L1123.01 639.54" stroke="#132e65" stroke-width="1.5"></path><path d="M1286.95 984.31L1286.95 984.31" stroke="#132e65" stroke-width="1.5"></path><path d="M1286.95 984.31L1295.48 1134.9" stroke="#132e65" stroke-width="1.5"></path><path d="M1286.95 984.31L1455.89 947.16" stroke="#132e65" stroke-width="1.5"></path><path d="M1286.95 984.31L1414.58 803.4" stroke="#132e65" stroke-width="1.5"></path><path d="M1295.48 1134.9L1295.48 1134.9" stroke="#132e65" stroke-width="1.5"></path><path d="M1295.48 1134.9L1434.86 1161.49" stroke="#132e65" stroke-width="1.5"></path><path d="M1449.81 -111.31L1449.81 -111.31" stroke="#132e65" stroke-width="1.5"></path><path d="M1449.81 -111.31L1389.96 82.36" stroke="#132e65" stroke-width="1.5"></path><path d="M1449.81 -111.31L1247.53 43.18" stroke="#132e65" stroke-width="1.5"></path><path d="M1449.81 -111.31L1126.34 -98.27" stroke="#132e65" stroke-width="1.5"></path><path d="M1449.81 -111.31L1399.54 216.32" stroke="#132e65" stroke-width="1.5"></path><path d="M1449.81 -111.31L1310.39 227.52" stroke="#132e65" stroke-width="1.5"></path><path d="M1389.96 82.36L1389.96 82.36" stroke="#132e65" stroke-width="1.5"></path><path d="M1389.96 82.36L1399.54 216.32" stroke="#132e65" stroke-width="1.5"></path><path d="M1389.96 82.36L1133.89 90.62" stroke="#132e65" stroke-width="1.5"></path><path d="M1399.54 216.32L1399.54 216.32" stroke="#132e65" stroke-width="1.5"></path><path d="M1428.5 397.94L1428.5 397.94" stroke="#132e65" stroke-width="1.5"></path><path d="M1428.5 397.94L1438.41 560.5" stroke="#132e65" stroke-width="1.5"></path><path d="M1428.5 397.94L1399.54 216.32" stroke="#132e65" stroke-width="1.5"></path><path d="M1438.41 560.5L1438.41 560.5" stroke="#132e65" stroke-width="1.5"></path><path d="M1438.41 560.5L1442.41 655.75" stroke="#132e65" stroke-width="1.5"></path><path d="M1442.41 655.75L1442.41 655.75" stroke="#132e65" stroke-width="1.5"></path><path d="M1442.41 655.75L1414.58 803.4" stroke="#132e65" stroke-width="1.5"></path><path d="M1442.41 655.75L1280.88 510.27" stroke="#132e65" stroke-width="1.5"></path><path d="M1414.58 803.4L1414.58 803.4" stroke="#132e65" stroke-width="1.5"></path><path d="M1414.58 803.4L1455.89 947.16" stroke="#132e65" stroke-width="1.5"></path><path d="M1414.58 803.4L1438.41 560.5" stroke="#132e65" stroke-width="1.5"></path><path d="M1414.58 803.4L1130.7 955.35" stroke="#132e65" stroke-width="1.5"></path><path d="M1455.89 947.16L1455.89 947.16" stroke="#132e65" stroke-width="1.5"></path><path d="M1455.89 947.16L1434.86 1161.49" stroke="#132e65" stroke-width="1.5"></path><path d="M1455.89 947.16L1295.48 1134.9" stroke="#132e65" stroke-width="1.5"></path><path d="M1455.89 947.16L1442.41 655.75" stroke="#132e65" stroke-width="1.5"></path><path d="M1434.86 1161.49L1434.86 1161.49" stroke="#132e65" stroke-width="1.5"></path><path d="M1434.86 1161.49L1286.95 984.31" stroke="#132e65" stroke-width="1.5"></path><path d="M1434.86 1161.49L1101.09 1138.06" stroke="#132e65" stroke-width="1.5"></path><circle r="5" cx="-80.02" cy="691.85" fill="#132e65"></circle><circle r="5" cx="-103.19" cy="832.97" fill="#132e65"></circle><circle r="5" cx="-107.56" cy="952.18" fill="#132e65"></circle><circle r="5" cx="-106.26" cy="1099.32" fill="#132e65"></circle><circle r="5" cx="99.02" cy="665.05" fill="#132e65"></circle><circle r="5" cx="78.74" cy="805.5" fill="#132e65"></circle><circle r="5" cx="77.53" cy="946.28" fill="#132e65"></circle><circle r="5" cx="39.94" cy="1145.91" fill="#132e65"></circle><circle r="5" cx="210.8" cy="698.11" fill="#132e65"></circle><circle r="5" cx="258.37" cy="809.95" fill="#132e65"></circle><circle r="5" cx="241.6" cy="986.31" fill="#132e65"></circle><circle r="5" cx="223.34" cy="1162.01" fill="#132e65"></circle><circle r="5" cx="396.94" cy="559.45" fill="#132e65"></circle><circle r="5" cx="382.56" cy="803.74" fill="#132e65"></circle><circle r="5" cx="357.07" cy="951.8" fill="#132e65"></circle><circle r="5" cx="395.71" cy="1110.51" fill="#132e65"></circle><circle r="5" cx="530.59" cy="544.89" fill="#132e65"></circle><circle r="5" cx="492.67" cy="699.37" fill="#132e65"></circle><circle r="5" cx="561.92" cy="790.27" fill="#132e65"></circle><circle r="5" cx="559.84" cy="1002.72" fill="#132e65"></circle><circle r="5" cx="527.4" cy="1111.67" fill="#132e65"></circle><circle r="5" cx="699.12" cy="401.41" fill="#132e65"></circle><circle r="5" cx="666.02" cy="506.84" fill="#132e65"></circle><circle r="5" cx="695.91" cy="681.53" fill="#132e65"></circle><circle r="5" cx="657.72" cy="848.76" fill="#132e65"></circle><circle r="5" cx="679.56" cy="1004.2" fill="#132e65"></circle><circle r="5" cx="710.86" cy="1112.07" fill="#132e65"></circle><circle r="5" cx="847.77" cy="-54.06" fill="#132e65"></circle><circle r="5" cx="797.14" cy="45.09" fill="#132e65"></circle><circle r="5" cx="824.75" cy="255.86" fill="#132e65"></circle><circle r="5" cx="830.03" cy="344.57" fill="#132e65"></circle><circle r="5" cx="835.44" cy="550.12" fill="#132e65"></circle><circle r="5" cx="844.79" cy="683.33" fill="#132e65"></circle><circle r="5" cx="798.27" cy="825.67" fill="#132e65"></circle><circle r="5" cx="845.72" cy="979.3" fill="#132e65"></circle><circle r="5" cx="787.61" cy="1138.26" fill="#132e65"></circle><circle r="5" cx="1005.58" cy="-51.14" fill="#132e65"></circle><circle r="5" cx="956.46" cy="75.46" fill="#132e65"></circle><circle r="5" cx="972.57" cy="262" fill="#132e65"></circle><circle r="5" cx="946.4" cy="387.13" fill="#132e65"></circle><circle r="5" cx="1002.06" cy="548.86" fill="#132e65"></circle><circle r="5" cx="972.48" cy="638.7" fill="#132e65"></circle><circle r="5" cx="984.9" cy="800.65" fill="#132e65"></circle><circle r="5" cx="953.74" cy="998.48" fill="#132e65"></circle><circle r="5" cx="942.99" cy="1131.59" fill="#132e65"></circle><circle r="5" cx="1126.34" cy="-98.27" fill="#132e65"></circle><circle r="5" cx="1133.89" cy="90.62" fill="#132e65"></circle><circle r="5" cx="1132.06" cy="223.18" fill="#132e65"></circle><circle r="5" cx="1159.52" cy="388.39" fill="#132e65"></circle><circle r="5" cx="1141.59" cy="499.09" fill="#132e65"></circle><circle r="5" cx="1123.01" cy="639.54" fill="#132e65"></circle><circle r="5" cx="1130.7" cy="955.35" fill="#132e65"></circle><circle r="5" cx="1101.09" cy="1138.06" fill="#132e65"></circle><circle r="5" cx="1308.71" cy="-85.83" fill="#132e65"></circle><circle r="5" cx="1247.53" cy="43.18" fill="#132e65"></circle><circle r="5" cx="1310.39" cy="227.52" fill="#132e65"></circle><circle r="5" cx="1311.07" cy="389.43" fill="#132e65"></circle><circle r="5" cx="1280.88" cy="510.27" fill="#132e65"></circle><circle r="5" cx="1251" cy="840.86" fill="#132e65"></circle><circle r="5" cx="1286.95" cy="984.31" fill="#132e65"></circle><circle r="5" cx="1295.48" cy="1134.9" fill="#132e65"></circle><circle r="5" cx="1449.81" cy="-111.31" fill="#132e65"></circle><circle r="5" cx="1389.96" cy="82.36" fill="#132e65"></circle><circle r="5" cx="1399.54" cy="216.32" fill="#132e65"></circle><circle r="5" cx="1428.5" cy="397.94" fill="#132e65"></circle><circle r="5" cx="1438.41" cy="560.5" fill="#132e65"></circle><circle r="5" cx="1442.41" cy="655.75" fill="#132e65"></circle><circle r="5" cx="1414.58" cy="803.4" fill="#132e65"></circle><circle r="5" cx="1455.89" cy="947.16" fill="#132e65"></circle><circle r="5" cx="1434.86" cy="1161.49" fill="#132e65"></circle><path d="M397.99 802.81L397.99 802.81" stroke="hsl(228.5, 77.2%, 51.5%)" stroke-width="1.5"></path><path d="M397.99 802.81L405.66 937.66" stroke="hsl(228.5, 77.2%, 51.5%)" stroke-width="1.5"></path><path d="M397.99 802.81L536.95 829.76" stroke="hsl(228.5, 77.2%, 51.5%)" stroke-width="1.5"></path><path d="M397.99 802.81L507.44 953.75" stroke="hsl(228.5, 77.2%, 51.5%)" stroke-width="1.5"></path><path d="M397.99 802.81L210.81 842.93" stroke="hsl(228.5, 77.2%, 51.5%)" stroke-width="1.5"></path><path d="M397.99 802.81L239.16 955.32" stroke="hsl(228.5, 77.2%, 51.5%)" stroke-width="1.5"></path><path d="M519.45 1093.04L519.45 1093.04" stroke="hsl(228.5, 77.2%, 51.5%)" stroke-width="1.5"></path><path d="M519.45 1093.04L507.44 953.75" stroke="hsl(228.5, 77.2%, 51.5%)" stroke-width="1.5"></path><path d="M1283.95 87.45L1283.95 87.45" stroke="hsl(228.5, 77.2%, 51.5%)" stroke-width="1.5"></path><path d="M1283.95 87.45L1244.59 198.54" stroke="hsl(228.5, 77.2%, 51.5%)" stroke-width="1.5"></path><path d="M1283.95 87.45L1240.64 -48.36" stroke="hsl(228.5, 77.2%, 51.5%)" stroke-width="1.5"></path><path d="M1283.95 87.45L1129.65 100" stroke="hsl(228.5, 77.2%, 51.5%)" stroke-width="1.5"></path><path d="M1283.95 87.45L1450.6 58.53" stroke="hsl(228.5, 77.2%, 51.5%)" stroke-width="1.5"></path><path d="M1260.58 795.37L1260.58 795.37" stroke="hsl(228.5, 77.2%, 51.5%)" stroke-width="1.5"></path><path d="M1260.58 795.37L1254.46 668.91" stroke="hsl(228.5, 77.2%, 51.5%)" stroke-width="1.5"></path><path d="M1260.58 795.37L1135.88 832.8" stroke="hsl(228.5, 77.2%, 51.5%)" stroke-width="1.5"></path><path d="M1260.58 795.37L1407.51 702.12" stroke="hsl(228.5, 77.2%, 51.5%)" stroke-width="1.5"></path><path d="M1260.58 795.37L1442.99 795.08" stroke="hsl(228.5, 77.2%, 51.5%)" stroke-width="1.5"></path><path d="M1260.58 795.37L1238 978.48" stroke="hsl(228.5, 77.2%, 51.5%)" stroke-width="1.5"></path><path d="M1260.58 795.37L1106.54 639.96" stroke="hsl(228.5, 77.2%, 51.5%)" stroke-width="1.5"></path><path d="M1450.6 58.53L1450.6 58.53" stroke="hsl(228.5, 77.2%, 51.5%)" stroke-width="1.5"></path><path d="M1450.6 58.53L1397.07 -43.32" stroke="hsl(228.5, 77.2%, 51.5%)" stroke-width="1.5"></path><path d="M1450.6 58.53L1439.78 202.93" stroke="hsl(228.5, 77.2%, 51.5%)" stroke-width="1.5"></path><path d="M1450.6 58.53L1240.64 -48.36" stroke="hsl(228.5, 77.2%, 51.5%)" stroke-width="1.5"></path><path d="M-69.44 836.85L-69.44 836.85" stroke="hsl(228.5, 77.2%, 51.5%)" stroke-width="1.5"></path><path d="M-69.44 836.85L-110.88 961.32" stroke="hsl(228.5, 77.2%, 51.5%)" stroke-width="1.5"></path><path d="M-69.44 836.85L58.4 1011.87" stroke="hsl(228.5, 77.2%, 51.5%)" stroke-width="1.5"></path><path d="M-69.44 836.85L-95.42 1092.03" stroke="hsl(228.5, 77.2%, 51.5%)" stroke-width="1.5"></path><path d="M-69.44 836.85L210.81 842.93" stroke="hsl(228.5, 77.2%, 51.5%)" stroke-width="1.5"></path><path d="M-69.44 836.85L108.6 1108.06" stroke="hsl(228.5, 77.2%, 51.5%)" stroke-width="1.5"></path><path d="M-69.44 836.85L239.16 955.32" stroke="hsl(228.5, 77.2%, 51.5%)" stroke-width="1.5"></path><path d="M-110.88 961.32L-110.88 961.32" stroke="hsl(228.5, 77.2%, 51.5%)" stroke-width="1.5"></path><path d="M-110.88 961.32L-95.42 1092.03" stroke="hsl(228.5, 77.2%, 51.5%)" stroke-width="1.5"></path><path d="M-110.88 961.32L58.4 1011.87" stroke="hsl(228.5, 77.2%, 51.5%)" stroke-width="1.5"></path><path d="M-110.88 961.32L108.6 1108.06" stroke="hsl(228.5, 77.2%, 51.5%)" stroke-width="1.5"></path><path d="M-95.42 1092.03L-95.42 1092.03" stroke="hsl(228.5, 77.2%, 51.5%)" stroke-width="1.5"></path><path d="M-95.42 1092.03L58.4 1011.87" stroke="hsl(228.5, 77.2%, 51.5%)" stroke-width="1.5"></path><path d="M-95.42 1092.03L108.6 1108.06" stroke="hsl(228.5, 77.2%, 51.5%)" stroke-width="1.5"></path><path d="M58.4 1011.87L58.4 1011.87" stroke="hsl(228.5, 77.2%, 51.5%)" stroke-width="1.5"></path><path d="M58.4 1011.87L108.6 1108.06" stroke="hsl(228.5, 77.2%, 51.5%)" stroke-width="1.5"></path><path d="M108.6 1108.06L108.6 1108.06" stroke="hsl(228.5, 77.2%, 51.5%)" stroke-width="1.5"></path><path d="M108.6 1108.06L239.16 955.32" stroke="hsl(228.5, 77.2%, 51.5%)" stroke-width="1.5"></path><path d="M210.81 842.93L210.81 842.93" stroke="hsl(228.5, 77.2%, 51.5%)" stroke-width="1.5"></path><path d="M210.81 842.93L239.16 955.32" stroke="hsl(228.5, 77.2%, 51.5%)" stroke-width="1.5"></path><path d="M239.16 955.32L239.16 955.32" stroke="hsl(228.5, 77.2%, 51.5%)" stroke-width="1.5"></path><path d="M239.16 955.32L405.66 937.66" stroke="hsl(228.5, 77.2%, 51.5%)" stroke-width="1.5"></path><path d="M405.66 937.66L405.66 937.66" stroke="hsl(228.5, 77.2%, 51.5%)" stroke-width="1.5"></path><path d="M405.66 937.66L507.44 953.75" stroke="hsl(228.5, 77.2%, 51.5%)" stroke-width="1.5"></path><path d="M405.66 937.66L536.95 829.76" stroke="hsl(228.5, 77.2%, 51.5%)" stroke-width="1.5"></path><path d="M405.66 937.66L519.45 1093.04" stroke="hsl(228.5, 77.2%, 51.5%)" stroke-width="1.5"></path><path d="M536.95 829.76L536.95 829.76" stroke="hsl(228.5, 77.2%, 51.5%)" stroke-width="1.5"></path><path d="M536.95 829.76L644.98 823.25" stroke="hsl(228.5, 77.2%, 51.5%)" stroke-width="1.5"></path><path d="M536.95 829.76L507.44 953.75" stroke="hsl(228.5, 77.2%, 51.5%)" stroke-width="1.5"></path><path d="M536.95 829.76L647.32 951.71" stroke="hsl(228.5, 77.2%, 51.5%)" stroke-width="1.5"></path><path d="M507.44 953.75L507.44 953.75" stroke="hsl(228.5, 77.2%, 51.5%)" stroke-width="1.5"></path><path d="M655.2 704.84L655.2 704.84" stroke="hsl(228.5, 77.2%, 51.5%)" stroke-width="1.5"></path><path d="M655.2 704.84L644.98 823.25" stroke="hsl(228.5, 77.2%, 51.5%)" stroke-width="1.5"></path><path d="M655.2 704.84L791.95 802.05" stroke="hsl(228.5, 77.2%, 51.5%)" stroke-width="1.5"></path><path d="M655.2 704.84L536.95 829.76" stroke="hsl(228.5, 77.2%, 51.5%)" stroke-width="1.5"></path><path d="M655.2 704.84L827.27 644.08" stroke="hsl(228.5, 77.2%, 51.5%)" stroke-width="1.5"></path><path d="M644.98 823.25L644.98 823.25" stroke="hsl(228.5, 77.2%, 51.5%)" stroke-width="1.5"></path><path d="M644.98 823.25L647.32 951.71" stroke="hsl(228.5, 77.2%, 51.5%)" stroke-width="1.5"></path><path d="M644.98 823.25L791.95 802.05" stroke="hsl(228.5, 77.2%, 51.5%)" stroke-width="1.5"></path><path d="M647.32 951.71L647.32 951.71" stroke="hsl(228.5, 77.2%, 51.5%)" stroke-width="1.5"></path><path d="M647.32 951.71L507.44 953.75" stroke="hsl(228.5, 77.2%, 51.5%)" stroke-width="1.5"></path><path d="M661.07 1108.32L661.07 1108.32" stroke="hsl(228.5, 77.2%, 51.5%)" stroke-width="1.5"></path><path d="M661.07 1108.32L519.45 1093.04" stroke="hsl(228.5, 77.2%, 51.5%)" stroke-width="1.5"></path><path d="M661.07 1108.32L812.28 1119.11" stroke="hsl(228.5, 77.2%, 51.5%)" stroke-width="1.5"></path><path d="M826.37 536.02L826.37 536.02" stroke="hsl(228.5, 77.2%, 51.5%)" stroke-width="1.5"></path><path d="M826.37 536.02L827.27 644.08" stroke="hsl(228.5, 77.2%, 51.5%)" stroke-width="1.5"></path><path d="M826.37 536.02L1002.07 547.46" stroke="hsl(228.5, 77.2%, 51.5%)" stroke-width="1.5"></path><path d="M826.37 536.02L994.31 653.25" stroke="hsl(228.5, 77.2%, 51.5%)" stroke-width="1.5"></path><path d="M826.37 536.02L972.82 356.02" stroke="hsl(228.5, 77.2%, 51.5%)" stroke-width="1.5"></path><path d="M827.27 644.08L827.27 644.08" stroke="hsl(228.5, 77.2%, 51.5%)" stroke-width="1.5"></path><path d="M827.27 644.08L791.95 802.05" stroke="hsl(228.5, 77.2%, 51.5%)" stroke-width="1.5"></path><path d="M791.95 802.05L791.95 802.05" stroke="hsl(228.5, 77.2%, 51.5%)" stroke-width="1.5"></path><path d="M791.95 802.05L828.64 957.93" stroke="hsl(228.5, 77.2%, 51.5%)" stroke-width="1.5"></path><path d="M791.95 802.05L949.16 842.39" stroke="hsl(228.5, 77.2%, 51.5%)" stroke-width="1.5"></path><path d="M828.64 957.93L828.64 957.93" stroke="hsl(228.5, 77.2%, 51.5%)" stroke-width="1.5"></path><path d="M828.64 957.93L812.28 1119.11" stroke="hsl(228.5, 77.2%, 51.5%)" stroke-width="1.5"></path><path d="M828.64 957.93L949.16 842.39" stroke="hsl(228.5, 77.2%, 51.5%)" stroke-width="1.5"></path><path d="M828.64 957.93L647.32 951.71" stroke="hsl(228.5, 77.2%, 51.5%)" stroke-width="1.5"></path><path d="M812.28 1119.11L812.28 1119.11" stroke="hsl(228.5, 77.2%, 51.5%)" stroke-width="1.5"></path><path d="M812.28 1119.11L993.77 1102.17" stroke="hsl(228.5, 77.2%, 51.5%)" stroke-width="1.5"></path><path d="M812.28 1119.11L647.32 951.71" stroke="hsl(228.5, 77.2%, 51.5%)" stroke-width="1.5"></path><path d="M812.28 1119.11L519.45 1093.04" stroke="hsl(228.5, 77.2%, 51.5%)" stroke-width="1.5"></path><path d="M812.28 1119.11L1113.35 1135.67" stroke="hsl(228.5, 77.2%, 51.5%)" stroke-width="1.5"></path><path d="M972.82 356.02L972.82 356.02" stroke="hsl(228.5, 77.2%, 51.5%)" stroke-width="1.5"></path><path d="M972.82 356.02L1095.88 348.97" stroke="hsl(228.5, 77.2%, 51.5%)" stroke-width="1.5"></path><path d="M972.82 356.02L1002.07 547.46" stroke="hsl(228.5, 77.2%, 51.5%)" stroke-width="1.5"></path><path d="M972.82 356.02L1134.77 229.49" stroke="hsl(228.5, 77.2%, 51.5%)" stroke-width="1.5"></path><path d="M1002.07 547.46L1002.07 547.46" stroke="hsl(228.5, 77.2%, 51.5%)" stroke-width="1.5"></path><path d="M1002.07 547.46L994.31 653.25" stroke="hsl(228.5, 77.2%, 51.5%)" stroke-width="1.5"></path><path d="M1002.07 547.46L1106.54 639.96" stroke="hsl(228.5, 77.2%, 51.5%)" stroke-width="1.5"></path><path d="M1002.07 547.46L1147.07 503.62" stroke="hsl(228.5, 77.2%, 51.5%)" stroke-width="1.5"></path><path d="M994.31 653.25L994.31 653.25" stroke="hsl(228.5, 77.2%, 51.5%)" stroke-width="1.5"></path><path d="M994.31 653.25L1106.54 639.96" stroke="hsl(228.5, 77.2%, 51.5%)" stroke-width="1.5"></path><path d="M994.31 653.25L827.27 644.08" stroke="hsl(228.5, 77.2%, 51.5%)" stroke-width="1.5"></path><path d="M994.31 653.25L949.16 842.39" stroke="hsl(228.5, 77.2%, 51.5%)" stroke-width="1.5"></path><path d="M949.16 842.39L949.16 842.39" stroke="hsl(228.5, 77.2%, 51.5%)" stroke-width="1.5"></path><path d="M949.16 842.39L1135.88 832.8" stroke="hsl(228.5, 77.2%, 51.5%)" stroke-width="1.5"></path><path d="M993.77 1102.17L993.77 1102.17" stroke="hsl(228.5, 77.2%, 51.5%)" stroke-width="1.5"></path><path d="M993.77 1102.17L1113.35 1135.67" stroke="hsl(228.5, 77.2%, 51.5%)" stroke-width="1.5"></path><path d="M993.77 1102.17L1106.85 966.5" stroke="hsl(228.5, 77.2%, 51.5%)" stroke-width="1.5"></path><path d="M1129.65 100L1129.65 100" stroke="hsl(228.5, 77.2%, 51.5%)" stroke-width="1.5"></path><path d="M1129.65 100L1134.77 229.49" stroke="hsl(228.5, 77.2%, 51.5%)" stroke-width="1.5"></path><path d="M1129.65 100L1244.59 198.54" stroke="hsl(228.5, 77.2%, 51.5%)" stroke-width="1.5"></path><path d="M1129.65 100L1240.64 -48.36" stroke="hsl(228.5, 77.2%, 51.5%)" stroke-width="1.5"></path><path d="M1129.65 100L1095.88 348.97" stroke="hsl(228.5, 77.2%, 51.5%)" stroke-width="1.5"></path><path d="M1129.65 100L1291.46 343.94" stroke="hsl(228.5, 77.2%, 51.5%)" stroke-width="1.5"></path><path d="M1134.77 229.49L1134.77 229.49" stroke="hsl(228.5, 77.2%, 51.5%)" stroke-width="1.5"></path><path d="M1134.77 229.49L1244.59 198.54" stroke="hsl(228.5, 77.2%, 51.5%)" stroke-width="1.5"></path><path d="M1134.77 229.49L1095.88 348.97" stroke="hsl(228.5, 77.2%, 51.5%)" stroke-width="1.5"></path><path d="M1134.77 229.49L1291.46 343.94" stroke="hsl(228.5, 77.2%, 51.5%)" stroke-width="1.5"></path><path d="M1095.88 348.97L1095.88 348.97" stroke="hsl(228.5, 77.2%, 51.5%)" stroke-width="1.5"></path><path d="M1095.88 348.97L1147.07 503.62" stroke="hsl(228.5, 77.2%, 51.5%)" stroke-width="1.5"></path><path d="M1095.88 348.97L1291.46 343.94" stroke="hsl(228.5, 77.2%, 51.5%)" stroke-width="1.5"></path><path d="M1147.07 503.62L1147.07 503.62" stroke="hsl(228.5, 77.2%, 51.5%)" stroke-width="1.5"></path><path d="M1147.07 503.62L1106.54 639.96" stroke="hsl(228.5, 77.2%, 51.5%)" stroke-width="1.5"></path><path d="M1147.07 503.62L1307.9 540.9" stroke="hsl(228.5, 77.2%, 51.5%)" stroke-width="1.5"></path><path d="M1106.54 639.96L1106.54 639.96" stroke="hsl(228.5, 77.2%, 51.5%)" stroke-width="1.5"></path><path d="M1106.54 639.96L1254.46 668.91" stroke="hsl(228.5, 77.2%, 51.5%)" stroke-width="1.5"></path><path d="M1106.54 639.96L1135.88 832.8" stroke="hsl(228.5, 77.2%, 51.5%)" stroke-width="1.5"></path><path d="M1135.88 832.8L1135.88 832.8" stroke="hsl(228.5, 77.2%, 51.5%)" stroke-width="1.5"></path><path d="M1135.88 832.8L1106.85 966.5" stroke="hsl(228.5, 77.2%, 51.5%)" stroke-width="1.5"></path><path d="M1106.85 966.5L1106.85 966.5" stroke="hsl(228.5, 77.2%, 51.5%)" stroke-width="1.5"></path><path d="M1106.85 966.5L1238 978.48" stroke="hsl(228.5, 77.2%, 51.5%)" stroke-width="1.5"></path><path d="M1106.85 966.5L1113.35 1135.67" stroke="hsl(228.5, 77.2%, 51.5%)" stroke-width="1.5"></path><path d="M1113.35 1135.67L1113.35 1135.67" stroke="hsl(228.5, 77.2%, 51.5%)" stroke-width="1.5"></path><path d="M1113.35 1135.67L1245.26 1093.43" stroke="hsl(228.5, 77.2%, 51.5%)" stroke-width="1.5"></path><path d="M1240.64 -48.36L1240.64 -48.36" stroke="hsl(228.5, 77.2%, 51.5%)" stroke-width="1.5"></path><path d="M1240.64 -48.36L1397.07 -43.32" stroke="hsl(228.5, 77.2%, 51.5%)" stroke-width="1.5"></path><path d="M1240.64 -48.36L1244.59 198.54" stroke="hsl(228.5, 77.2%, 51.5%)" stroke-width="1.5"></path><path d="M1244.59 198.54L1244.59 198.54" stroke="hsl(228.5, 77.2%, 51.5%)" stroke-width="1.5"></path><path d="M1291.46 343.94L1291.46 343.94" stroke="hsl(228.5, 77.2%, 51.5%)" stroke-width="1.5"></path><path d="M1291.46 343.94L1244.59 198.54" stroke="hsl(228.5, 77.2%, 51.5%)" stroke-width="1.5"></path><path d="M1307.9 540.9L1307.9 540.9" stroke="hsl(228.5, 77.2%, 51.5%)" stroke-width="1.5"></path><path d="M1307.9 540.9L1254.46 668.91" stroke="hsl(228.5, 77.2%, 51.5%)" stroke-width="1.5"></path><path d="M1307.9 540.9L1445.81 559.53" stroke="hsl(228.5, 77.2%, 51.5%)" stroke-width="1.5"></path><path d="M1307.9 540.9L1407.51 702.12" stroke="hsl(228.5, 77.2%, 51.5%)" stroke-width="1.5"></path><path d="M1307.9 540.9L1434.66 398.06" stroke="hsl(228.5, 77.2%, 51.5%)" stroke-width="1.5"></path><path d="M1254.46 668.91L1254.46 668.91" stroke="hsl(228.5, 77.2%, 51.5%)" stroke-width="1.5"></path><path d="M1254.46 668.91L1407.51 702.12" stroke="hsl(228.5, 77.2%, 51.5%)" stroke-width="1.5"></path><path d="M1238 978.48L1238 978.48" stroke="hsl(228.5, 77.2%, 51.5%)" stroke-width="1.5"></path><path d="M1238 978.48L1245.26 1093.43" stroke="hsl(228.5, 77.2%, 51.5%)" stroke-width="1.5"></path><path d="M1238 978.48L1135.88 832.8" stroke="hsl(228.5, 77.2%, 51.5%)" stroke-width="1.5"></path><path d="M1245.26 1093.43L1245.26 1093.43" stroke="hsl(228.5, 77.2%, 51.5%)" stroke-width="1.5"></path><path d="M1245.26 1093.43L1106.85 966.5" stroke="hsl(228.5, 77.2%, 51.5%)" stroke-width="1.5"></path><path d="M1397.07 -43.32L1397.07 -43.32" stroke="hsl(228.5, 77.2%, 51.5%)" stroke-width="1.5"></path><path d="M1397.07 -43.32L1283.95 87.45" stroke="hsl(228.5, 77.2%, 51.5%)" stroke-width="1.5"></path><path d="M1397.07 -43.32L1439.78 202.93" stroke="hsl(228.5, 77.2%, 51.5%)" stroke-width="1.5"></path><path d="M1439.78 202.93L1439.78 202.93" stroke="hsl(228.5, 77.2%, 51.5%)" stroke-width="1.5"></path><path d="M1439.78 202.93L1283.95 87.45" stroke="hsl(228.5, 77.2%, 51.5%)" stroke-width="1.5"></path><path d="M1439.78 202.93L1434.66 398.06" stroke="hsl(228.5, 77.2%, 51.5%)" stroke-width="1.5"></path><path d="M1439.78 202.93L1244.59 198.54" stroke="hsl(228.5, 77.2%, 51.5%)" stroke-width="1.5"></path><path d="M1434.66 398.06L1434.66 398.06" stroke="hsl(228.5, 77.2%, 51.5%)" stroke-width="1.5"></path><path d="M1434.66 398.06L1291.46 343.94" stroke="hsl(228.5, 77.2%, 51.5%)" stroke-width="1.5"></path><path d="M1434.66 398.06L1445.81 559.53" stroke="hsl(228.5, 77.2%, 51.5%)" stroke-width="1.5"></path><path d="M1445.81 559.53L1445.81 559.53" stroke="hsl(228.5, 77.2%, 51.5%)" stroke-width="1.5"></path><path d="M1445.81 559.53L1407.51 702.12" stroke="hsl(228.5, 77.2%, 51.5%)" stroke-width="1.5"></path><path d="M1445.81 559.53L1254.46 668.91" stroke="hsl(228.5, 77.2%, 51.5%)" stroke-width="1.5"></path><path d="M1445.81 559.53L1442.99 795.08" stroke="hsl(228.5, 77.2%, 51.5%)" stroke-width="1.5"></path><path d="M1407.51 702.12L1407.51 702.12" stroke="hsl(228.5, 77.2%, 51.5%)" stroke-width="1.5"></path><path d="M1407.51 702.12L1442.99 795.08" stroke="hsl(228.5, 77.2%, 51.5%)" stroke-width="1.5"></path><path d="M1442.99 795.08L1442.99 795.08" stroke="hsl(228.5, 77.2%, 51.5%)" stroke-width="1.5"></path><path d="M1442.99 795.08L1438.65 967.56" stroke="hsl(228.5, 77.2%, 51.5%)" stroke-width="1.5"></path><path d="M1442.99 795.08L1254.46 668.91" stroke="hsl(228.5, 77.2%, 51.5%)" stroke-width="1.5"></path><path d="M1438.65 967.56L1438.65 967.56" stroke="hsl(228.5, 77.2%, 51.5%)" stroke-width="1.5"></path><path d="M1438.65 967.56L1428.21 1146.64" stroke="hsl(228.5, 77.2%, 51.5%)" stroke-width="1.5"></path><path d="M1438.65 967.56L1238 978.48" stroke="hsl(228.5, 77.2%, 51.5%)" stroke-width="1.5"></path><path d="M1438.65 967.56L1245.26 1093.43" stroke="hsl(228.5, 77.2%, 51.5%)" stroke-width="1.5"></path><path d="M1428.21 1146.64L1428.21 1146.64" stroke="hsl(228.5, 77.2%, 51.5%)" stroke-width="1.5"></path><path d="M1428.21 1146.64L1245.26 1093.43" stroke="hsl(228.5, 77.2%, 51.5%)" stroke-width="1.5"></path><path d="M1428.21 1146.64L1238 978.48" stroke="hsl(228.5, 77.2%, 51.5%)" stroke-width="1.5"></path><path d="M1428.21 1146.64L1113.35 1135.67" stroke="hsl(228.5, 77.2%, 51.5%)" stroke-width="1.5"></path><circle r="25" cx="397.99" cy="802.81" fill="url(#SvgjsRadialGradient1032)"></circle><circle r="25" cx="519.45" cy="1093.04" fill="url(#SvgjsRadialGradient1032)"></circle><circle r="25" cx="1283.95" cy="87.45" fill="url(#SvgjsRadialGradient1032)"></circle><circle r="25" cx="1260.58" cy="795.37" fill="url(#SvgjsRadialGradient1032)"></circle><circle r="25" cx="1450.6" cy="58.53" fill="url(#SvgjsRadialGradient1032)"></circle><circle r="5" cx="-69.44" cy="836.85" fill="#8b9ad9"></circle><circle r="5" cx="-110.88" cy="961.32" fill="#8b9ad9"></circle><circle r="5" cx="-95.42" cy="1092.03" fill="#8b9ad9"></circle><circle r="5" cx="58.4" cy="1011.87" fill="#8b9ad9"></circle><circle r="5" cx="108.6" cy="1108.06" fill="#8b9ad9"></circle><circle r="5" cx="210.81" cy="842.93" fill="#8b9ad9"></circle><circle r="5" cx="239.16" cy="955.32" fill="#8b9ad9"></circle><circle r="5" cx="405.66" cy="937.66" fill="#8b9ad9"></circle><circle r="5" cx="536.95" cy="829.76" fill="#8b9ad9"></circle><circle r="5" cx="507.44" cy="953.75" fill="#8b9ad9"></circle><circle r="5" cx="655.2" cy="704.84" fill="#8b9ad9"></circle><circle r="5" cx="644.98" cy="823.25" fill="#8b9ad9"></circle><circle r="5" cx="647.32" cy="951.71" fill="#8b9ad9"></circle><circle r="5" cx="661.07" cy="1108.32" fill="#8b9ad9"></circle><circle r="5" cx="826.37" cy="536.02" fill="#8b9ad9"></circle><circle r="5" cx="827.27" cy="644.08" fill="#8b9ad9"></circle><circle r="5" cx="791.95" cy="802.05" fill="#8b9ad9"></circle><circle r="5" cx="828.64" cy="957.93" fill="#8b9ad9"></circle><circle r="5" cx="812.28" cy="1119.11" fill="#8b9ad9"></circle><circle r="5" cx="972.82" cy="356.02" fill="#8b9ad9"></circle><circle r="5" cx="1002.07" cy="547.46" fill="#8b9ad9"></circle><circle r="5" cx="994.31" cy="653.25" fill="#8b9ad9"></circle><circle r="5" cx="949.16" cy="842.39" fill="#8b9ad9"></circle><circle r="5" cx="993.77" cy="1102.17" fill="#8b9ad9"></circle><circle r="5" cx="1129.65" cy="100" fill="#8b9ad9"></circle><circle r="5" cx="1134.77" cy="229.49" fill="#8b9ad9"></circle><circle r="5" cx="1095.88" cy="348.97" fill="#8b9ad9"></circle><circle r="5" cx="1147.07" cy="503.62" fill="#8b9ad9"></circle><circle r="5" cx="1106.54" cy="639.96" fill="#8b9ad9"></circle><circle r="5" cx="1135.88" cy="832.8" fill="#8b9ad9"></circle><circle r="5" cx="1106.85" cy="966.5" fill="#8b9ad9"></circle><circle r="5" cx="1113.35" cy="1135.67" fill="#8b9ad9"></circle><circle r="5" cx="1240.64" cy="-48.36" fill="#8b9ad9"></circle><circle r="5" cx="1244.59" cy="198.54" fill="#8b9ad9"></circle><circle r="5" cx="1291.46" cy="343.94" fill="#8b9ad9"></circle><circle r="5" cx="1307.9" cy="540.9" fill="#8b9ad9"></circle><circle r="5" cx="1254.46" cy="668.91" fill="#8b9ad9"></circle><circle r="5" cx="1238" cy="978.48" fill="#8b9ad9"></circle><circle r="5" cx="1245.26" cy="1093.43" fill="#8b9ad9"></circle><circle r="5" cx="1397.07" cy="-43.32" fill="#8b9ad9"></circle><circle r="5" cx="1439.78" cy="202.93" fill="#8b9ad9"></circle><circle r="5" cx="1434.66" cy="398.06" fill="#8b9ad9"></circle><circle r="5" cx="1445.81" cy="559.53" fill="#8b9ad9"></circle><circle r="5" cx="1407.51" cy="702.12" fill="#8b9ad9"></circle><circle r="5" cx="1442.99" cy="795.08" fill="#8b9ad9"></circle><circle r="5" cx="1438.65" cy="967.56" fill="#8b9ad9"></circle><circle r="5" cx="1428.21" cy="1146.64" fill="#8b9ad9"></circle></g><defs><mask id="SvgjsMask1030"><rect width="1280" height="1024" fill="#ffffff"></rect></mask><linearGradient x1="5%" y1="106.25%" x2="95%" y2="-6.25%" gradientUnits="userSpaceOnUse" id="SvgjsLinearGradient1031"><stop stop-color="#0e2a47" offset="0"></stop><stop stop-color="#00459e" offset="1"></stop></linearGradient><radialGradient id="SvgjsRadialGradient1032"><stop stop-color="#ffffff" offset="0.1"></stop><stop stop-color="#1735b3" offset="0.2"></stop><stop stop-color="rgba(23, 53, 179, 0)" offset="1"></stop></radialGradient></defs></svg>