<svg
  xmlns="http://www.w3.org/2000/svg"
  version="1.1"
  xmlns:xlink="http://www.w3.org/1999/xlink"
  xmlns:svgjs="http://svgjs.com/svgjs"
  width="1960"
  height="560"
  preserveAspectRatio="none"
  viewBox="0 0 1960 560"
>
    <g mask="url(&quot;#SvgjsMask1021&quot;)" fill="none">
        <rect width="1960" height="560" x="0" y="0" fill="#0e2a47" />
        <path
      d="M -133.64710983146506,202 C -68.25,226.8 62.55,342.8 193.35289016853494,326 C 324.15,309.2 389.55,78.4 520.3528901685349,118 C 651.15,157.6 716.55,505 847.3528901685349,524 C 978.15,543 1043.55,256 1174.352890168535,213 C 1305.15,170 1370.55,327 1501.352890168535,309 C 1632.15,291 1697.55,84.4 1828.352890168535,123 C 1959.15,161.6 2129.02,487.4 2155.352890168535,502 C 2181.68,516.6 1999.07,257.2 1960,196"
      stroke="rgba(66, 102, 139, 0.58)"
      stroke-width="2"
    />
        <path
      d="M -62.410322255645724,460 C 2.99,378.4 133.79,87.2 264.5896777443543,52 C 395.39,16.8 460.79,257.8 591.5896777443543,284 C 722.39,310.2 787.79,166.4 918.5896777443543,183 C 1049.39,199.6 1114.79,367 1245.5896777443543,367 C 1376.39,367 1441.79,155.8 1572.5896777443543,183 C 1703.39,210.2 1768.79,496.2 1899.5896777443543,503 C 2030.39,509.8 2214.51,224.4 2226.589677744354,217 C 2238.67,209.6 2013.32,416.2 1960,466"
      stroke="rgba(66, 102, 139, 0.58)"
      stroke-width="2"
    />
        <path
      d="M -527.220684087123,493 C -461.82,403.4 -331.02,78.4 -200.220684087123,45 C -69.42,11.6 -4.02,296.6 126.779315912877,326 C 257.58,355.4 322.98,181.4 453.779315912877,192 C 584.58,202.6 649.98,365.8 780.779315912877,379 C 911.58,392.2 976.98,247.6 1107.7793159128769,258 C 1238.58,268.4 1303.98,443.2 1434.7793159128769,431 C 1565.58,418.8 1656.74,207 1761.7793159128769,197 C 1866.82,187 1920.36,344.2 1960,381"
      stroke="rgba(66, 102, 139, 0.58)"
      stroke-width="2"
    />
        <path
      d="M -346.07922775922873,352 C -280.68,296 -149.88,85.6 -19.079227759228733,72 C 111.72,58.4 177.12,286.6 307.92077224077127,284 C 438.72,281.4 504.12,32 634.9207722407713,59 C 765.72,86 831.12,401.2 961.9207722407713,419 C 1092.72,436.8 1158.12,155.4 1288.9207722407712,148 C 1419.72,140.6 1485.12,387.6 1615.9207722407712,382 C 1746.72,376.4 1874.1,93.2 1942.9207722407712,120 C 2011.74,146.8 1956.58,436.8 1960,516"
      stroke="rgba(66, 102, 139, 0.58)"
      stroke-width="2"
    />
    </g>
    <defs>
        <mask id="SvgjsMask1021">
            <rect width="1960" height="560" fill="#ffffff" />
        </mask>
    </defs>
</svg>
